<svg width="374" height="253" viewBox="0 0 374 253" fill="none" xmlns="http://www.w3.org/2000/svg">
<g clip-path="url(#clip0_4_12)">
<path d="M344.142 122.167H31.1383C26.9428 122.167 23.5295 118.751 23.5295 114.552V7.61496C23.5295 3.41605 26.9428 0 31.1383 0H344.142C348.337 0 351.75 3.41605 351.75 7.61496V114.552C351.75 118.751 348.337 122.167 344.142 122.167ZM31.1383 0.907873C27.4431 0.907873 24.4367 3.91675 24.4367 7.61496V114.552C24.4367 118.25 27.4431 121.26 31.1383 121.26H344.142C347.837 121.26 350.843 118.25 350.843 114.552V7.61496C350.843 3.91675 347.837 0.907873 344.142 0.907873H31.1383Z" fill="#3F3D56"/>
<path d="M374 249.918H-12V250.682H374V249.918Z" fill="#E6E6E6"/>
<path d="M374 210.879H-12V211.643H374V210.879Z" fill="#E6E6E6"/>
<path d="M163.911 126.1C164.188 129.586 166.21 132.269 168.427 132.092C170.644 131.915 172.216 128.946 171.938 125.459C171.846 124.064 171.422 122.712 170.701 121.515L169.34 106.758L162.434 107.545L164.509 122.009C163.986 123.305 163.781 124.708 163.911 126.1Z" fill="#FFB6B6"/>
<path d="M155.662 57.2565C155.662 57.2565 162.117 53.8365 165.39 58.9472C168.663 64.0578 170.922 119.33 170.922 119.33L161.85 120.3L160.13 81.3507L155.662 57.2565Z" fill="#E6E6E6"/>
<path d="M142.264 207.996L147.52 207.995L150.02 187.707L142.263 187.707L142.264 207.996Z" fill="#FFB6B6"/>
<path d="M160.271 207.876C160.434 208.152 160.521 209.042 160.521 209.363C160.521 210.349 159.722 211.148 158.737 211.148H142.461C141.789 211.148 141.244 210.603 141.244 209.93V209.252C141.244 209.252 140.439 207.214 142.096 204.702C142.096 204.702 144.157 206.669 147.235 203.588L148.143 201.942L154.715 206.752L158.357 207.201C159.154 207.299 159.861 207.185 160.271 207.876Z" fill="#2F2E41"/>
<path d="M172.678 207.125L177.77 205.822L175.175 185.546L167.659 187.468L172.678 207.125Z" fill="#FFB6B6"/>
<path d="M190.094 202.549C190.321 202.776 190.625 203.617 190.704 203.928C190.948 204.883 190.372 205.855 189.418 206.099L173.648 210.131C172.997 210.297 172.334 209.904 172.168 209.252L172 208.595C172 208.595 170.716 206.82 171.701 203.975C171.701 203.975 174.183 205.371 176.404 201.623L176.877 199.803L184.433 202.836L188.073 202.368C188.87 202.266 189.526 201.981 190.094 202.549Z" fill="#2F2E41"/>
<path d="M137.916 52.895L137.667 51.0852L140.629 43.8458L148.766 42.9409L150.523 53.305L137.916 52.895Z" fill="#FFB6B6"/>
<path opacity="0.1" d="M137.916 52.895L137.667 51.0852L140.629 43.8458L148.766 42.9409L150.523 53.305L137.916 52.895Z" fill="black"/>
<path d="M128.422 104.023L124.805 113.977L127.518 119.407L141.081 198.135H150.098L148.314 128.456L169.11 198.135H178.035L170.858 151.079L165.494 107.643L162.24 105.631L146.506 96.7837L128.422 104.023Z" fill="#2F2E41"/>
<path d="M151.479 110.81L146.054 111.715L138.82 94.5214H155.095L151.479 110.81Z" fill="#E6E6E6"/>
<path d="M162.329 106.285L151.479 110.81L147.862 102.666L146.054 111.715L127.066 105.598L129.778 94.5214L127.066 58.3245L136.641 51.9357L137.916 51.0852L149.67 51.9901L150.701 52.5511L157.808 56.5147L159.616 86.3771L162.329 106.285Z" fill="#2F2E41"/>
<path d="M150.701 52.5511L145.602 74.1606L136.641 51.9357L137.916 51.0852L149.67 51.9901L150.701 52.5511Z" fill="#E6E6E6"/>
<path d="M141.985 51.0852L140.177 54.2021L141.985 55.2411L141.081 74.2169L144.697 79.1377L148.314 71.8648L145.602 55.2411L146.506 51.0852H141.985Z" fill="#2F2E41"/>
<path d="M144.697 49.2753C149.441 49.2753 153.287 45.4264 153.287 40.6786C153.287 35.9307 149.441 32.0818 144.697 32.0818C139.953 32.0818 136.108 35.9307 136.108 40.6786C136.108 45.4264 139.953 49.2753 144.697 49.2753Z" fill="#FFB6B6"/>
<path d="M139.208 41.4327L141.064 42.2434L141.874 37.3794C141.874 37.3794 145.114 35.7581 147.544 36.5688C149.974 37.3794 154.024 36.5688 154.024 36.5688C154.024 36.5688 154.024 28.4622 148.354 28.4622C142.684 28.4622 137.014 29.2728 137.014 31.7048C137.014 34.1368 134.584 36.5688 134.584 36.5688C134.584 36.5688 131.344 41.4327 134.584 44.6753C137.824 47.918 139.444 47.918 139.444 47.918L139.208 41.4327Z" fill="#2F2E41"/>
<path d="M122.541 125.846C122.447 129.342 124.173 132.224 126.396 132.284C128.619 132.343 130.497 129.558 130.59 126.061C130.647 124.664 130.368 123.274 129.778 122.008L129.991 107.19L123.041 107.239L123.569 121.841C122.912 123.075 122.559 124.448 122.541 125.846Z" fill="#FFB6B6"/>
<path d="M131.139 56.4977C131.139 56.4977 125.262 54.6879 122.549 60.1174C119.837 65.5469 123.454 120.747 123.454 120.747H132.577L130.156 81.8355L131.139 56.4977Z" fill="#E6E6E6"/>
<path d="M356.594 159.335L334.676 152.621C334.192 152.472 333.683 152.418 333.178 152.461L222.099 161.922C220.515 162.057 220.117 164.195 221.546 164.892L225.104 166.627H225.009V249.675H228.362V168.215L239.513 173.652C240.366 174.068 241.318 174.238 242.263 174.142L243.449 174.023V249.675H246.802V173.684L332.716 164.998V249.675H336.069V164.659L350.318 163.219V249.675H353.671V162.88L356.271 162.617C358.095 162.433 358.347 159.873 356.594 159.335Z" fill="#3F3D56"/>
<path d="M254.346 161.593C256.441 161.593 287.454 157.818 287.454 157.818L292.064 164.11L259.794 170.401L254.346 161.593Z" fill="white"/>
<path d="M288.383 246.45L282.995 246.44L280.467 225.636L288.42 225.65L288.383 246.45Z" fill="#A0616A"/>
<path d="M269.923 246.296C269.754 246.578 269.664 247.491 269.664 247.819C269.662 248.83 270.479 249.651 271.489 249.653L288.176 249.681C288.865 249.683 289.424 249.125 289.425 248.435L289.427 247.74C289.427 247.74 290.256 245.652 288.561 243.073C288.561 243.073 286.445 245.086 283.294 241.922L282.366 240.233L275.621 245.153L271.886 245.606C271.068 245.705 270.344 245.588 269.923 246.296Z" fill="#2F2E41"/>
<path d="M317.301 236.775L313.05 239.984L298.659 225.101L304.933 220.365L317.301 236.775Z" fill="#A0616A"/>
<path d="M302.664 247.674C302.7 247.998 303.173 248.77 303.369 249.03C303.97 249.827 305.103 249.986 305.9 249.384L319.064 239.445C319.608 239.035 319.716 238.261 319.306 237.717L318.893 237.169C318.893 237.169 318.301 235.028 315.429 234.009C315.429 234.009 314.962 236.858 310.593 236.246L308.855 235.469L306.473 243.372L303.8 245.96C303.215 246.526 302.575 246.865 302.664 247.674Z" fill="#2F2E41"/>
<path d="M306.04 129.254C306.04 134.227 302.012 138.258 297.044 138.258C292.075 138.258 288.047 134.227 288.047 129.254C288.047 124.281 292.075 120.25 297.044 120.25C302.012 120.25 306.04 124.281 306.04 129.254Z" fill="#A0616A"/>
<path d="M305.193 181.169C305.193 181.169 272.068 179.293 270.193 183.046C268.318 186.799 280.329 238.35 280.329 238.35L291.046 236.102L285.818 199.934C285.818 199.934 313.46 207.261 317.21 198.504C320.96 189.747 319.88 186.486 319.88 186.486L305.193 181.169Z" fill="#2F2E41"/>
<path d="M313.68 174.869C313.68 174.869 281.239 181.829 280.423 185.945C279.607 190.061 304.816 236.596 304.816 236.596L314.556 231.591L299.955 198.095C299.955 198.095 328.549 197.843 329.85 188.405C331.152 178.967 329.249 176.108 329.249 176.108L313.68 174.869Z" fill="#2F2E41"/>
<path d="M317.38 139.573H301.795L291.13 157.087C291.13 157.087 288.63 168.405 291.13 169.627C293.63 170.848 293.63 183.984 293.63 183.984L319.88 186.486C319.88 186.486 323.63 147.079 322.38 143.326C321.13 139.573 317.38 139.573 317.38 139.573Z" fill="#6C63FF"/>
<path d="M292.693 151.145L291.13 169.627L273.556 162.162L269.361 160.051C268.54 158.978 267.474 158.119 266.252 157.544C263.214 156.062 259.99 156.429 259.048 158.363C258.106 160.297 259.804 163.066 262.841 164.546C264.046 165.155 265.38 165.466 266.731 165.453L279.003 172.429L279.018 172.401L279.072 172.499L298.318 180.543L302.746 156.281L292.693 151.145Z" fill="#A0616A"/>
<path d="M290.818 130.503C290.818 130.503 281.443 131.754 285.193 123.622C285.193 123.622 284.621 119.214 287.407 118.916C290.193 118.618 293.943 113.614 293.943 113.614C293.943 113.614 302.54 109.236 306.991 113.614C311.443 117.993 324.568 143.639 324.568 143.639L315.818 153.021C315.818 153.021 310.557 139.181 304.438 140.784C298.318 142.388 292.693 147.168 292.693 147.168C292.693 147.168 286.482 144.057 289.275 141.346C292.068 138.635 290.818 130.503 290.818 130.503Z" fill="#2F2E41"/>
<path d="M303.318 144.264C303.318 144.264 298.943 138.635 295.818 143.013C292.693 147.392 290.193 153.021 290.193 153.021L302.693 157.4L303.318 144.264Z" fill="#6C63FF"/>
<path d="M350.778 248.43L336.255 202.233L336.258 202.233H336.291L336.232 202.157L336.231 202.155L335.197 198.865L335.197 198.864C336.773 197.505 337.846 195.563 338.06 193.328L331.421 156.787C331.878 151.988 328.203 147.794 323.387 147.622L308.409 147.584C304.151 147.433 300.463 150.512 299.843 154.731L299.511 156.971L294.922 188.215C294.755 189.339 294.822 190.446 295.086 191.482L291.783 191.914L290.782 192.049L286.821 192.564L286.809 192.569L286.314 192.632H285.778V206.054H285.811V248.954C285.811 249.23 286.038 249.457 286.314 249.457C286.595 249.457 286.821 249.23 286.821 248.954V206.054H292.697L298.56 248.903C298.598 249.155 298.812 249.339 299.063 249.339C299.084 249.339 299.109 249.339 299.13 249.335C299.407 249.297 299.599 249.042 299.562 248.765L293.72 206.054H321.912C324.711 206.054 327.305 205.165 329.417 203.642L340.595 248.825C340.653 249.053 340.859 249.205 341.084 249.205C341.125 249.205 341.167 249.2 341.209 249.19C341.479 249.121 341.642 248.846 341.574 248.575L330.288 202.956C330.438 202.831 330.588 202.697 330.73 202.56L335.217 202.296L349.815 248.733C349.883 248.949 350.082 249.087 350.297 249.087C350.347 249.087 350.398 249.079 350.448 249.064C350.714 248.98 350.862 248.696 350.778 248.43ZM334.238 199.582C334.275 199.561 334.309 199.536 334.342 199.515L334.45 199.857L334.238 199.582Z" fill="#E6E6E6"/>
<path d="M65.8163 170.124L75.5902 163.903L79.5638 166.302L65.8163 182.112V170.124Z" fill="#FFB6B6"/>
<path d="M52.4506 146.046C52.4506 146.046 45.9587 147.575 49.0137 156.365C52.0687 165.155 61.9975 183.5 65.0525 182.354C68.1075 181.207 68.4894 169.742 68.4894 169.742C68.4894 169.742 68.1075 170.124 66.58 168.595C65.0525 167.066 65.0525 167.765 65.0525 166.078C65.0525 164.391 63.8031 163.141 63.8031 163.141L62.3794 160.187C62.3794 160.187 62.3794 146.428 56.6512 145.664C50.9231 144.9 52.4506 146.046 52.4506 146.046Z" fill="#E6E6E6"/>
<path d="M82.7809 165.891C85.3161 163.354 86.102 160.026 84.5361 158.459C82.9702 156.892 79.6456 157.679 77.1103 160.216C74.5751 162.753 73.7893 166.08 75.3552 167.648C76.9211 169.215 80.2457 168.428 82.7809 165.891Z" fill="#FFB6B6"/>
<path d="M27.1646 196.686L33.8338 207.734L72.6996 205.432L62.3507 192.083L27.1646 196.686Z" fill="#E6E6E6"/>
<path d="M38.7778 248.358C38.5514 248.358 38.3542 248.19 38.3226 247.96L26.7089 163.07C26.6744 162.818 26.8505 162.586 27.1021 162.552C27.3537 162.515 27.5857 162.694 27.6203 162.945L39.234 247.835C39.2685 248.087 39.0924 248.319 38.8407 248.353C38.8195 248.356 38.7985 248.358 38.7778 248.358Z" fill="#E6E6E6"/>
<path d="M27.1645 248.465C26.9105 248.465 26.7046 248.259 26.7046 248.005V163.024C26.7046 162.77 26.9105 162.564 27.1645 162.564C27.4185 162.564 27.6245 162.77 27.6245 163.024V248.005C27.6245 248.259 27.4185 248.465 27.1645 248.465Z" fill="#E6E6E6"/>
<path d="M85.463 248.128C85.2675 248.128 85.0862 248.002 85.0244 247.805L57.5424 160.384C57.4662 160.142 57.6008 159.883 57.8432 159.807C58.0854 159.731 58.3438 159.865 58.4199 160.108L85.9019 247.529C85.9781 247.771 85.8435 248.03 85.6012 248.106C85.5552 248.121 85.5087 248.128 85.463 248.128Z" fill="#E6E6E6"/>
<path d="M77.0688 248.235C76.8634 248.235 76.6763 248.097 76.6233 247.889L57.5354 170.733C57.4728 170.487 57.6216 170.236 57.8678 170.174C58.1147 170.111 58.3643 170.26 58.427 170.506L77.5149 247.661C77.5775 247.908 77.4287 248.158 77.1825 248.221C77.1444 248.231 77.1063 248.235 77.0688 248.235Z" fill="#E6E6E6"/>
<path d="M27.1646 164.378L59.0161 163.888L64.8804 197.377H27.6245L27.1646 164.378Z" fill="#E6E6E6"/>
<path d="M76.1124 213.621L68.0852 227.765L77.4054 229.818L81.2911 219.759L76.1124 213.621Z" fill="#FFB6B6"/>
<path d="M70.9684 225.095C70.9684 225.095 70.6565 222.788 68.8227 223.52C66.989 224.252 61.6967 226.972 61.6967 226.972C61.6967 226.972 75.5003 249.42 78.12 248.374C80.7396 247.328 77.6037 240.983 77.6037 240.983L78.2958 229.767L70.9684 225.095Z" fill="#2F2E41"/>
<path d="M40.6124 186.176C40.6124 186.176 37.7483 199.361 46.5315 203.947C55.3146 208.534 85.2918 197.259 85.2918 197.259L71.5443 217.875L81.0912 221.719C81.0912 221.719 102.858 193.055 101.331 188.469C99.8031 183.883 89.4925 183.5 89.4925 183.5L66.1981 184.647L60.088 182.736L40.6124 186.176Z" fill="#2F2E41"/>
<path d="M64.237 219.898L51.6176 230.149L59.5521 235.456L66.829 227.501L64.237 219.898Z" fill="#FFB6B6"/>
<path d="M55.2739 228.712C55.2739 228.712 55.822 226.45 53.8478 226.464C51.8736 226.478 45.9551 227.084 45.9551 227.084C45.9551 227.084 50.6508 253.02 53.4711 253C56.2913 252.98 55.6775 245.928 55.6775 245.928L60.4002 235.732L55.2739 228.712Z" fill="#2F2E41"/>
<path d="M41.1493 181.406C41.1493 181.406 33.6875 192.645 40.201 200.115C46.7146 207.586 78.7359 208.001 78.7359 208.001L58.4354 222.197L65.93 229.255C65.93 229.255 96.6265 210.483 96.8712 205.655C97.1159 200.826 87.6511 196.715 87.6511 196.715L65.5367 189.3L60.5404 185.295L41.1493 181.406Z" fill="#2F2E41"/>
<path d="M60.3181 155.375C60.3181 155.375 53.0625 152.7 49.6256 152.7C49.2972 152.7 48.9726 152.738 48.648 152.807C46.4484 153.273 44.4245 155.165 43.4545 156.197C43.0764 156.602 42.8588 156.873 42.8588 156.873C42.8588 156.873 42.8817 156.61 42.9275 156.147C43.1528 153.717 43.9853 145.74 45.4784 140.634C46.0131 138.811 46.6279 137.355 47.3344 136.648C48.9802 134.997 49.7402 133.017 50.0915 131.542C50.3894 130.277 50.3894 129.387 50.3894 129.387L47.6055 128.187L47.0899 124.816C46.9983 125.213 46.5744 125.989 45.15 127.476C45.0278 127.602 44.8942 127.709 44.7529 127.801C42.6984 129.092 38.5092 126.845 36.2523 125.431C37.1917 122.163 38.8949 119.175 41.9881 118.685C49.2437 117.539 49.2437 113.335 53.8262 117.921C54.2043 118.299 54.5862 118.662 54.968 119.014C56.4344 121.819 56.9691 125.58 57.16 128.194C57.2975 130.025 57.2631 131.298 57.2631 131.298C57.2631 131.298 59.1725 142.763 62.2275 145.056C65.2825 147.349 60.3181 155.375 60.3181 155.375Z" fill="#2F2E41"/>
<path d="M46.1886 137.03L41.0288 144.605L52.6805 147.732V137.03H46.1886Z" fill="#FFB6B6"/>
<path opacity="0.1" d="M46.1886 137.03L41.0288 144.605L52.6805 147.732V137.03H46.1886Z" fill="black"/>
<path d="M53.4053 144.326L42.3309 139.74C42.3309 139.74 27.4377 146.237 28.5834 158.849C29.729 171.462 40.4215 193.246 40.4215 193.246L61.8065 184.074L59.5153 159.614L53.4053 144.326Z" fill="#E6E6E6"/>
<path d="M48.657 140.412C54.053 140.412 58.4273 136.034 58.4273 130.634C58.4273 125.233 54.053 120.856 48.657 120.856C43.261 120.856 38.8867 125.233 38.8867 130.634C38.8867 136.034 43.261 140.412 48.657 140.412Z" fill="#FFB6B6"/>
<path d="M61.8456 127.093C59.9362 129.004 58.4087 130.915 58.4087 130.915L57.6449 127.858C57.6449 127.858 57.4693 127.988 57.16 128.194C55.9494 129.02 52.6996 131.095 50.0914 131.542C48.9305 131.741 47.8995 131.615 47.2274 130.915C45.803 129.429 45.3791 128.653 45.2875 128.255L44.7719 131.626L41.9881 132.826C41.9881 132.826 41.9881 137.023 45.0431 140.088C45.192 140.237 45.3371 140.42 45.4784 140.634C46.9372 142.836 47.9835 148.225 48.648 152.807C49.236 156.881 49.5186 160.313 49.5186 160.313C49.5186 160.313 46.6278 156.69 43.4545 156.197C43.2788 156.17 43.1031 156.151 42.9275 156.147C42.8702 156.14 42.8091 156.14 42.7518 156.14C39.3149 156.14 32.0593 158.815 32.0593 158.815C32.0593 158.815 27.0949 150.789 30.1499 148.496C33.2049 146.203 35.1143 134.737 35.1143 134.737C35.1143 134.737 34.9883 129.83 36.2523 125.431C37.1917 122.163 38.8949 119.175 41.9881 118.685C49.2437 117.539 49.2437 113.335 53.8262 117.921C54.2042 118.299 54.5861 118.662 54.968 119.014C59.2374 122.943 63.5984 125.339 61.8456 127.093Z" fill="#2F2E41"/>
<path d="M18.994 178.397H15.3655V250.119H18.994V178.397Z" fill="#3F3D56"/>
<path d="M106.986 178.397H103.357V250.119H106.986V178.397Z" fill="#3F3D56"/>
<path d="M83.8539 147.983H59.8149V172.042H83.8539V147.983Z" fill="#6C63FF"/>
<path d="M45.9587 173.564L55.7326 167.343L59.7063 169.742L45.9587 185.551V173.564Z" fill="#FFB6B6"/>
<path d="M32.5931 149.486C32.5931 149.486 26.1012 151.015 29.1562 159.805C32.2112 168.595 42.1399 186.94 45.1949 185.794C48.25 184.647 48.6318 173.181 48.6318 173.181C48.6318 173.181 48.25 173.564 46.7225 172.035C45.195 170.506 45.1949 171.204 45.1949 169.517C45.1949 167.831 43.9456 166.58 43.9456 166.58L42.5218 163.627C42.5218 163.627 42.5218 149.868 36.7937 149.104C31.0656 148.339 32.5931 149.486 32.5931 149.486Z" fill="#E6E6E6"/>
<path d="M62.9234 169.331C65.4586 166.793 66.2444 163.466 64.6785 161.899C63.1127 160.332 59.788 161.118 57.2528 163.655C54.7176 166.193 53.9317 169.52 55.4976 171.087C57.0635 172.654 60.3881 171.868 62.9234 169.331Z" fill="#FFB6B6"/>
<path d="M114.243 175.673H4.47986V183.844H114.243V175.673Z" fill="#3F3D56"/>
<path d="M225.761 110.307H209.551C208.265 110.307 207.224 111.349 207.224 112.635V119.326C207.224 120.612 208.265 121.655 209.551 121.655H225.761C227.046 121.655 228.088 120.612 228.088 119.326V112.635C228.088 111.349 227.046 110.307 225.761 110.307Z" fill="#3F3D56"/>
<path d="M259.778 116.998H243.568C242.283 116.998 241.241 118.04 241.241 119.326V119.326C241.241 120.612 242.283 121.655 243.568 121.655H259.778C261.064 121.655 262.105 120.612 262.105 119.326C262.105 118.04 261.064 116.998 259.778 116.998Z" fill="#6C63FF"/>
</g>
<defs>
<clipPath id="clip0_4_12">
<rect width="386" height="253" fill="white" transform="translate(-12)"/>
</clipPath>
</defs>
</svg>
